<mxfile host="app.diagrams.net" agent="Mozilla/5.0 (Windows NT 10.0; Win64; x64) AppleWebKit/537.36 (KHTML, like Gecko) Chrome/134.0.0.0 Safari/537.36" version="26.2.8">
  <diagram name="第 1 页" id="rJ3sB17UAO_FJXm_JMCv">
    <mxGraphModel dx="1044" dy="562" grid="1" gridSize="10" guides="1" tooltips="1" connect="1" arrows="1" fold="1" page="1" pageScale="1" pageWidth="827" pageHeight="1169" math="0" shadow="0">
      <root>
        <mxCell id="0" />
        <mxCell id="1" parent="0" />
        <mxCell id="k8uHPYN7JbXx66jrZZpt-1" value="&lt;font style=&quot;font-size: 18px;&quot;&gt;查看操作票&lt;/font&gt;" style="swimlane;html=1;childLayout=stackLayout;startSize=20;rounded=0;shadow=0;labelBackgroundColor=none;strokeWidth=1;fontFamily=Verdana;fontSize=8;align=center;" vertex="1" parent="1">
          <mxGeometry x="70" y="40" width="960" height="610" as="geometry" />
        </mxCell>
        <mxCell id="k8uHPYN7JbXx66jrZZpt-2" value="接收请求" style="swimlane;html=1;startSize=20;" vertex="1" parent="k8uHPYN7JbXx66jrZZpt-1">
          <mxGeometry y="20" width="160" height="590" as="geometry">
            <mxRectangle y="20" width="40" height="730" as="alternateBounds" />
          </mxGeometry>
        </mxCell>
        <mxCell id="k8uHPYN7JbXx66jrZZpt-3" value="&lt;font style=&quot;font-size: 12px;&quot;&gt;开始&lt;/font&gt;" style="rounded=1;whiteSpace=wrap;html=1;shadow=0;labelBackgroundColor=none;strokeWidth=1;fontFamily=Verdana;fontSize=8;align=center;" vertex="1" parent="k8uHPYN7JbXx66jrZZpt-2">
          <mxGeometry x="20" y="65" width="100" height="60" as="geometry" />
        </mxCell>
        <mxCell id="k8uHPYN7JbXx66jrZZpt-11" value="查询操作票主记录" style="swimlane;html=1;startSize=20;" vertex="1" parent="k8uHPYN7JbXx66jrZZpt-1">
          <mxGeometry x="160" y="20" width="160" height="590" as="geometry" />
        </mxCell>
        <mxCell id="k8uHPYN7JbXx66jrZZpt-12" style="edgeStyle=orthogonalEdgeStyle;rounded=0;orthogonalLoop=1;jettySize=auto;html=1;exitX=0.5;exitY=1;exitDx=0;exitDy=0;entryX=0.5;entryY=0;entryDx=0;entryDy=0;" edge="1" parent="k8uHPYN7JbXx66jrZZpt-11" target="k8uHPYN7JbXx66jrZZpt-67">
          <mxGeometry relative="1" as="geometry">
            <mxPoint x="80" y="325" as="sourcePoint" />
            <mxPoint x="80" y="380" as="targetPoint" />
            <Array as="points">
              <mxPoint x="80" y="370" />
              <mxPoint x="150" y="370" />
              <mxPoint x="150" y="130" />
              <mxPoint x="240" y="130" />
            </Array>
          </mxGeometry>
        </mxCell>
        <mxCell id="k8uHPYN7JbXx66jrZZpt-14" value="&lt;span style=&quot;font-size: 12px;&quot;&gt;查询数据转换成响应对象&lt;/span&gt;" style="whiteSpace=wrap;html=1;fontSize=8;fontFamily=Verdana;rounded=0;shadow=0;labelBackgroundColor=none;strokeWidth=1;" vertex="1" parent="k8uHPYN7JbXx66jrZZpt-11">
          <mxGeometry x="30" y="270" width="100" height="60" as="geometry" />
        </mxCell>
        <mxCell id="k8uHPYN7JbXx66jrZZpt-66" style="edgeStyle=orthogonalEdgeStyle;rounded=0;orthogonalLoop=1;jettySize=auto;html=1;exitX=0.5;exitY=1;exitDx=0;exitDy=0;" edge="1" parent="k8uHPYN7JbXx66jrZZpt-11" source="k8uHPYN7JbXx66jrZZpt-65" target="k8uHPYN7JbXx66jrZZpt-14">
          <mxGeometry relative="1" as="geometry" />
        </mxCell>
        <mxCell id="k8uHPYN7JbXx66jrZZpt-65" value="&lt;span style=&quot;font-size: 12px;&quot;&gt;根据主键查询&lt;/span&gt;&lt;div&gt;&lt;span style=&quot;font-size: 12px;&quot;&gt;操作票主记录数据&lt;/span&gt;&lt;/div&gt;" style="whiteSpace=wrap;html=1;fontSize=8;fontFamily=Verdana;rounded=0;shadow=0;labelBackgroundColor=none;strokeWidth=1;" vertex="1" parent="k8uHPYN7JbXx66jrZZpt-11">
          <mxGeometry x="30" y="170" width="100" height="60" as="geometry" />
        </mxCell>
        <mxCell id="k8uHPYN7JbXx66jrZZpt-15" value="查询操作票操作项" style="swimlane;html=1;startSize=20;" vertex="1" parent="k8uHPYN7JbXx66jrZZpt-1">
          <mxGeometry x="320" y="20" width="160" height="590" as="geometry" />
        </mxCell>
        <mxCell id="k8uHPYN7JbXx66jrZZpt-16" style="edgeStyle=orthogonalEdgeStyle;rounded=0;orthogonalLoop=1;jettySize=auto;html=1;exitX=0.5;exitY=1;exitDx=0;exitDy=0;entryX=0.5;entryY=0;entryDx=0;entryDy=0;" edge="1" parent="k8uHPYN7JbXx66jrZZpt-15">
          <mxGeometry relative="1" as="geometry">
            <mxPoint x="80" y="317.5" as="sourcePoint" />
          </mxGeometry>
        </mxCell>
        <mxCell id="k8uHPYN7JbXx66jrZZpt-17" style="edgeStyle=orthogonalEdgeStyle;rounded=0;orthogonalLoop=1;jettySize=auto;html=1;exitX=0.5;exitY=1;exitDx=0;exitDy=0;entryX=0.5;entryY=0;entryDx=0;entryDy=0;" edge="1" parent="k8uHPYN7JbXx66jrZZpt-15">
          <mxGeometry relative="1" as="geometry">
            <mxPoint x="80" y="420" as="sourcePoint" />
          </mxGeometry>
        </mxCell>
        <mxCell id="k8uHPYN7JbXx66jrZZpt-18" style="edgeStyle=orthogonalEdgeStyle;rounded=0;orthogonalLoop=1;jettySize=auto;html=1;exitX=0.5;exitY=1;exitDx=0;exitDy=0;entryX=0.5;entryY=0;entryDx=0;entryDy=0;" edge="1" parent="k8uHPYN7JbXx66jrZZpt-15">
          <mxGeometry relative="1" as="geometry">
            <mxPoint x="80" y="520" as="sourcePoint" />
          </mxGeometry>
        </mxCell>
        <mxCell id="k8uHPYN7JbXx66jrZZpt-70" style="edgeStyle=orthogonalEdgeStyle;rounded=0;orthogonalLoop=1;jettySize=auto;html=1;exitX=0.5;exitY=1;exitDx=0;exitDy=0;entryX=0.5;entryY=0;entryDx=0;entryDy=0;" edge="1" parent="k8uHPYN7JbXx66jrZZpt-15" source="k8uHPYN7JbXx66jrZZpt-67" target="k8uHPYN7JbXx66jrZZpt-69">
          <mxGeometry relative="1" as="geometry" />
        </mxCell>
        <mxCell id="k8uHPYN7JbXx66jrZZpt-67" value="&lt;span style=&quot;font-size: 12px;&quot;&gt;查询&lt;/span&gt;&lt;div&gt;&lt;span style=&quot;font-size: 12px;&quot;&gt;操作票操作项数据&lt;/span&gt;&lt;/div&gt;" style="whiteSpace=wrap;html=1;fontSize=8;fontFamily=Verdana;rounded=0;shadow=0;labelBackgroundColor=none;strokeWidth=1;" vertex="1" parent="k8uHPYN7JbXx66jrZZpt-15">
          <mxGeometry x="30" y="170" width="100" height="60" as="geometry" />
        </mxCell>
        <mxCell id="k8uHPYN7JbXx66jrZZpt-75" style="edgeStyle=orthogonalEdgeStyle;rounded=0;orthogonalLoop=1;jettySize=auto;html=1;exitX=0.5;exitY=1;exitDx=0;exitDy=0;entryX=0.5;entryY=0;entryDx=0;entryDy=0;" edge="1" parent="k8uHPYN7JbXx66jrZZpt-15" source="k8uHPYN7JbXx66jrZZpt-69" target="k8uHPYN7JbXx66jrZZpt-73">
          <mxGeometry relative="1" as="geometry" />
        </mxCell>
        <mxCell id="k8uHPYN7JbXx66jrZZpt-69" value="&lt;span style=&quot;font-size: 12px;&quot;&gt;赋值给响应对象&lt;/span&gt;" style="whiteSpace=wrap;html=1;fontSize=8;fontFamily=Verdana;rounded=0;shadow=0;labelBackgroundColor=none;strokeWidth=1;" vertex="1" parent="k8uHPYN7JbXx66jrZZpt-15">
          <mxGeometry x="30" y="270" width="100" height="60" as="geometry" />
        </mxCell>
        <mxCell id="k8uHPYN7JbXx66jrZZpt-73" value="&lt;span style=&quot;font-size: 12px;&quot;&gt;查询&lt;/span&gt;&lt;div&gt;&lt;span style=&quot;font-size: 12px;&quot;&gt;操作票图形化操作项数据&lt;/span&gt;&lt;/div&gt;" style="whiteSpace=wrap;html=1;fontSize=8;fontFamily=Verdana;rounded=0;shadow=0;labelBackgroundColor=none;strokeWidth=1;" vertex="1" parent="k8uHPYN7JbXx66jrZZpt-15">
          <mxGeometry x="30" y="370" width="100" height="60" as="geometry" />
        </mxCell>
        <mxCell id="k8uHPYN7JbXx66jrZZpt-74" value="&lt;span style=&quot;font-size: 12px;&quot;&gt;赋值给响应对象&lt;/span&gt;" style="whiteSpace=wrap;html=1;fontSize=8;fontFamily=Verdana;rounded=0;shadow=0;labelBackgroundColor=none;strokeWidth=1;" vertex="1" parent="k8uHPYN7JbXx66jrZZpt-15">
          <mxGeometry x="30" y="470" width="100" height="60" as="geometry" />
        </mxCell>
        <mxCell id="k8uHPYN7JbXx66jrZZpt-72" style="edgeStyle=orthogonalEdgeStyle;rounded=0;orthogonalLoop=1;jettySize=auto;html=1;exitX=0.5;exitY=1;exitDx=0;exitDy=0;entryX=0.5;entryY=0;entryDx=0;entryDy=0;" edge="1" parent="k8uHPYN7JbXx66jrZZpt-15" source="k8uHPYN7JbXx66jrZZpt-73" target="k8uHPYN7JbXx66jrZZpt-74">
          <mxGeometry relative="1" as="geometry" />
        </mxCell>
        <mxCell id="k8uHPYN7JbXx66jrZZpt-30" value="查询操作设备" style="swimlane;html=1;startSize=20;" vertex="1" parent="k8uHPYN7JbXx66jrZZpt-1">
          <mxGeometry x="480" y="20" width="160" height="590" as="geometry" />
        </mxCell>
        <mxCell id="k8uHPYN7JbXx66jrZZpt-90" style="edgeStyle=orthogonalEdgeStyle;rounded=0;orthogonalLoop=1;jettySize=auto;html=1;exitX=0.5;exitY=1;exitDx=0;exitDy=0;entryX=0.5;entryY=0;entryDx=0;entryDy=0;" edge="1" parent="k8uHPYN7JbXx66jrZZpt-30" source="k8uHPYN7JbXx66jrZZpt-76" target="k8uHPYN7JbXx66jrZZpt-88">
          <mxGeometry relative="1" as="geometry" />
        </mxCell>
        <mxCell id="k8uHPYN7JbXx66jrZZpt-76" value="&lt;span style=&quot;font-size: 12px;&quot;&gt;查询&lt;/span&gt;&lt;div&gt;&lt;span style=&quot;font-size: 12px;&quot;&gt;操作设备数据&lt;/span&gt;&lt;/div&gt;" style="whiteSpace=wrap;html=1;fontSize=8;fontFamily=Verdana;rounded=0;shadow=0;labelBackgroundColor=none;strokeWidth=1;" vertex="1" parent="k8uHPYN7JbXx66jrZZpt-30">
          <mxGeometry x="30" y="170" width="100" height="60" as="geometry" />
        </mxCell>
        <mxCell id="k8uHPYN7JbXx66jrZZpt-88" value="&lt;span style=&quot;font-size: 12px;&quot;&gt;赋值给响应对象&lt;/span&gt;" style="whiteSpace=wrap;html=1;fontSize=8;fontFamily=Verdana;rounded=0;shadow=0;labelBackgroundColor=none;strokeWidth=1;" vertex="1" parent="k8uHPYN7JbXx66jrZZpt-30">
          <mxGeometry x="30" y="270" width="100" height="60" as="geometry" />
        </mxCell>
        <mxCell id="k8uHPYN7JbXx66jrZZpt-46" value="查询风险措施" style="swimlane;html=1;startSize=20;" vertex="1" parent="k8uHPYN7JbXx66jrZZpt-1">
          <mxGeometry x="640" y="20" width="160" height="590" as="geometry" />
        </mxCell>
        <mxCell id="k8uHPYN7JbXx66jrZZpt-94" style="edgeStyle=orthogonalEdgeStyle;rounded=0;orthogonalLoop=1;jettySize=auto;html=1;exitX=0.5;exitY=1;exitDx=0;exitDy=0;entryX=0.5;entryY=0;entryDx=0;entryDy=0;" edge="1" parent="k8uHPYN7JbXx66jrZZpt-46" source="k8uHPYN7JbXx66jrZZpt-91" target="k8uHPYN7JbXx66jrZZpt-92">
          <mxGeometry relative="1" as="geometry" />
        </mxCell>
        <mxCell id="k8uHPYN7JbXx66jrZZpt-91" value="&lt;span style=&quot;font-size: 12px;&quot;&gt;查询&lt;/span&gt;&lt;div&gt;&lt;span style=&quot;font-size: 12px;&quot;&gt;风险措施数据&lt;/span&gt;&lt;/div&gt;" style="whiteSpace=wrap;html=1;fontSize=8;fontFamily=Verdana;rounded=0;shadow=0;labelBackgroundColor=none;strokeWidth=1;" vertex="1" parent="k8uHPYN7JbXx66jrZZpt-46">
          <mxGeometry x="30" y="170" width="100" height="60" as="geometry" />
        </mxCell>
        <mxCell id="k8uHPYN7JbXx66jrZZpt-92" value="&lt;span style=&quot;font-size: 12px;&quot;&gt;赋值给响应对象&lt;/span&gt;" style="whiteSpace=wrap;html=1;fontSize=8;fontFamily=Verdana;rounded=0;shadow=0;labelBackgroundColor=none;strokeWidth=1;" vertex="1" parent="k8uHPYN7JbXx66jrZZpt-46">
          <mxGeometry x="30" y="270" width="100" height="60" as="geometry" />
        </mxCell>
        <mxCell id="k8uHPYN7JbXx66jrZZpt-4" style="edgeStyle=orthogonalEdgeStyle;rounded=0;orthogonalLoop=1;jettySize=auto;html=1;entryX=0.5;entryY=0;entryDx=0;entryDy=0;exitX=0.5;exitY=1;exitDx=0;exitDy=0;" edge="1" parent="k8uHPYN7JbXx66jrZZpt-1" source="k8uHPYN7JbXx66jrZZpt-3" target="k8uHPYN7JbXx66jrZZpt-65">
          <mxGeometry relative="1" as="geometry">
            <mxPoint x="70" y="240" as="sourcePoint" />
            <mxPoint x="70" y="180" as="targetPoint" />
          </mxGeometry>
        </mxCell>
        <mxCell id="k8uHPYN7JbXx66jrZZpt-89" style="edgeStyle=orthogonalEdgeStyle;rounded=0;orthogonalLoop=1;jettySize=auto;html=1;exitX=0.5;exitY=1;exitDx=0;exitDy=0;entryX=0.5;entryY=0;entryDx=0;entryDy=0;" edge="1" parent="k8uHPYN7JbXx66jrZZpt-1" source="k8uHPYN7JbXx66jrZZpt-74" target="k8uHPYN7JbXx66jrZZpt-76">
          <mxGeometry relative="1" as="geometry">
            <Array as="points">
              <mxPoint x="400" y="590" />
              <mxPoint x="470" y="590" />
              <mxPoint x="470" y="150" />
              <mxPoint x="560" y="150" />
            </Array>
          </mxGeometry>
        </mxCell>
        <mxCell id="k8uHPYN7JbXx66jrZZpt-93" style="edgeStyle=orthogonalEdgeStyle;rounded=0;orthogonalLoop=1;jettySize=auto;html=1;exitX=0.5;exitY=1;exitDx=0;exitDy=0;entryX=0.5;entryY=0;entryDx=0;entryDy=0;" edge="1" parent="k8uHPYN7JbXx66jrZZpt-1" source="k8uHPYN7JbXx66jrZZpt-88" target="k8uHPYN7JbXx66jrZZpt-91">
          <mxGeometry relative="1" as="geometry">
            <Array as="points">
              <mxPoint x="560" y="390" />
              <mxPoint x="630" y="390" />
              <mxPoint x="630" y="150" />
              <mxPoint x="720" y="150" />
            </Array>
          </mxGeometry>
        </mxCell>
        <mxCell id="k8uHPYN7JbXx66jrZZpt-99" style="edgeStyle=orthogonalEdgeStyle;rounded=0;orthogonalLoop=1;jettySize=auto;html=1;exitX=0.5;exitY=1;exitDx=0;exitDy=0;entryX=0.5;entryY=0;entryDx=0;entryDy=0;" edge="1" parent="k8uHPYN7JbXx66jrZZpt-1" source="k8uHPYN7JbXx66jrZZpt-92" target="k8uHPYN7JbXx66jrZZpt-97">
          <mxGeometry relative="1" as="geometry">
            <Array as="points">
              <mxPoint x="720" y="390" />
              <mxPoint x="790" y="390" />
              <mxPoint x="790" y="150" />
              <mxPoint x="880" y="150" />
            </Array>
          </mxGeometry>
        </mxCell>
        <mxCell id="k8uHPYN7JbXx66jrZZpt-95" value="查询评价" style="swimlane;html=1;startSize=20;" vertex="1" parent="k8uHPYN7JbXx66jrZZpt-1">
          <mxGeometry x="800" y="20" width="160" height="590" as="geometry" />
        </mxCell>
        <mxCell id="k8uHPYN7JbXx66jrZZpt-96" style="edgeStyle=orthogonalEdgeStyle;rounded=0;orthogonalLoop=1;jettySize=auto;html=1;exitX=0.5;exitY=1;exitDx=0;exitDy=0;entryX=0.5;entryY=0;entryDx=0;entryDy=0;" edge="1" parent="k8uHPYN7JbXx66jrZZpt-95" source="k8uHPYN7JbXx66jrZZpt-97" target="k8uHPYN7JbXx66jrZZpt-98">
          <mxGeometry relative="1" as="geometry" />
        </mxCell>
        <mxCell id="k8uHPYN7JbXx66jrZZpt-97" value="&lt;span style=&quot;font-size: 12px;&quot;&gt;查询&lt;/span&gt;&lt;div&gt;&lt;span style=&quot;font-size: 12px;&quot;&gt;评价数据&lt;/span&gt;&lt;/div&gt;" style="whiteSpace=wrap;html=1;fontSize=8;fontFamily=Verdana;rounded=0;shadow=0;labelBackgroundColor=none;strokeWidth=1;" vertex="1" parent="k8uHPYN7JbXx66jrZZpt-95">
          <mxGeometry x="30" y="170" width="100" height="60" as="geometry" />
        </mxCell>
        <mxCell id="k8uHPYN7JbXx66jrZZpt-101" style="edgeStyle=orthogonalEdgeStyle;rounded=0;orthogonalLoop=1;jettySize=auto;html=1;exitX=0.5;exitY=1;exitDx=0;exitDy=0;entryX=0.5;entryY=0;entryDx=0;entryDy=0;" edge="1" parent="k8uHPYN7JbXx66jrZZpt-95" source="k8uHPYN7JbXx66jrZZpt-98" target="k8uHPYN7JbXx66jrZZpt-100">
          <mxGeometry relative="1" as="geometry" />
        </mxCell>
        <mxCell id="k8uHPYN7JbXx66jrZZpt-98" value="&lt;span style=&quot;font-size: 12px;&quot;&gt;赋值给响应对象&lt;/span&gt;" style="whiteSpace=wrap;html=1;fontSize=8;fontFamily=Verdana;rounded=0;shadow=0;labelBackgroundColor=none;strokeWidth=1;" vertex="1" parent="k8uHPYN7JbXx66jrZZpt-95">
          <mxGeometry x="30" y="270" width="100" height="60" as="geometry" />
        </mxCell>
        <mxCell id="k8uHPYN7JbXx66jrZZpt-100" value="&lt;span style=&quot;font-size: 12px;&quot;&gt;成功返回&lt;/span&gt;" style="whiteSpace=wrap;html=1;fontSize=8;fontFamily=Verdana;rounded=0;shadow=0;labelBackgroundColor=none;strokeWidth=1;" vertex="1" parent="k8uHPYN7JbXx66jrZZpt-95">
          <mxGeometry x="30" y="510" width="100" height="60" as="geometry" />
        </mxCell>
      </root>
    </mxGraphModel>
  </diagram>
</mxfile>
